grf
version=1
nRows=23
nColumns=46
inDegrees=yes
endheader
time	ground_force_1_vx	ground_force_1_vy	ground_force_1_vz	ground_force_1_px	ground_force_1_py	ground_force_1_pz	ground_moment_1_mx	ground_moment_1_my	ground_moment_1_mz	ground_force_2_vx	ground_force_2_vy	ground_force_2_vz	ground_force_2_px	ground_force_2_py	ground_force_2_pz	ground_moment_2_mx	ground_moment_2_my	ground_moment_2_mz	ground_force_3_vx	ground_force_3_vy	ground_force_3_vz	ground_force_3_px	ground_force_3_py	ground_force_3_pz	ground_moment_3_mx	ground_moment_3_my	ground_moment_3_mz	ground_force_4_vx	ground_force_4_vy	ground_force_4_vz	ground_force_4_px	ground_force_4_py	ground_force_4_pz	ground_moment_4_mx	ground_moment_4_my	ground_moment_4_mz	ground_force_5_vx	ground_force_5_vy	ground_force_5_vz	ground_force_5_px	ground_force_5_py	ground_force_5_pz	ground_moment_5_mx	ground_moment_5_my	ground_moment_5_mz
0.652500	0.000000	0.000000	0.000000	0.000000	0.000000	0.000000	0.000000	0.000000	0.000000	0.000000	0.000000	0.000000	0.000000	0.000000	0.000000	0.000000	0.000000	0.000000	0.000000	0.000000	0.000000	0.000000	0.000000	0.000000	0.000000	0.000000	0.000000	10.773118	534.731600	-82.981589	0.173196	0.000000	-0.905074	0.000000	5.377757	0.000000	-2.367774	509.296790	84.991558	0.202480	0.000000	-1.570271	-0.000000	-6.371182	-0.000000
0.653000	0.000000	0.000000	0.000000	0.000000	0.000000	0.000000	0.000000	0.000000	0.000000	0.000000	0.000000	0.000000	0.000000	0.000000	0.000000	0.000000	0.000000	0.000000	0.000000	0.000000	0.000000	0.000000	0.000000	0.000000	0.000000	0.000000	0.000000	10.779267	534.868183	-82.996258	0.173202	0.000000	-0.905070	0.000000	5.382266	0.000000	-2.374413	509.315030	84.918849	0.202509	0.000000	-1.570280	-0.000000	-6.375460	-0.000000
0.653500	0.000000	0.000000	0.000000	0.000000	0.000000	0.000000	0.000000	0.000000	0.000000	0.000000	0.000000	0.000000	0.000000	0.000000	0.000000	0.000000	0.000000	0.000000	0.000000	0.000000	0.000000	0.000000	0.000000	0.000000	0.000000	0.000000	0.000000	10.787017	534.995192	-83.009369	0.173208	0.000000	-0.905065	0.000000	5.386684	0.000000	-2.378055	509.334800	84.845307	0.202538	0.000000	-1.570288	-0.000000	-6.379652	-0.000000
0.654000	0.000000	0.000000	0.000000	0.000000	0.000000	0.000000	0.000000	0.000000	0.000000	0.000000	0.000000	0.000000	0.000000	0.000000	0.000000	0.000000	0.000000	0.000000	0.000000	0.000000	0.000000	0.000000	0.000000	0.000000	0.000000	0.000000	0.000000	10.796392	535.112469	-83.020751	0.173214	0.000000	-0.905060	0.000000	5.391018	0.000000	-2.378686	509.355995	84.770894	0.202566	0.000000	-1.570297	-0.000000	-6.383757	-0.000000
0.654500	0.000000	0.000000	0.000000	0.000000	0.000000	0.000000	0.000000	0.000000	0.000000	0.000000	0.000000	0.000000	0.000000	0.000000	0.000000	0.000000	0.000000	0.000000	0.000000	0.000000	0.000000	0.000000	0.000000	0.000000	0.000000	0.000000	0.000000	10.807421	535.219873	-83.030228	0.173220	0.000000	-0.905055	0.000000	5.395271	0.000000	-2.376294	509.378493	84.695576	0.202595	0.000000	-1.570304	-0.000000	-6.387770	-0.000000
0.655000	0.000000	0.000000	0.000000	0.000000	0.000000	0.000000	0.000000	0.000000	0.000000	0.000000	0.000000	0.000000	0.000000	0.000000	0.000000	0.000000	0.000000	0.000000	0.000000	0.000000	0.000000	0.000000	0.000000	0.000000	0.000000	0.000000	0.000000	10.820149	535.317273	-83.037616	0.173227	0.000000	-0.905049	0.000000	5.399445	0.000000	-2.370867	509.402164	84.619319	0.202622	0.000000	-1.570312	-0.000000	-6.391689	-0.000000
0.655500	0.000000	0.000000	0.000000	0.000000	0.000000	0.000000	0.000000	0.000000	0.000000	0.000000	0.000000	0.000000	0.000000	0.000000	0.000000	0.000000	0.000000	0.000000	0.000000	0.000000	0.000000	0.000000	0.000000	0.000000	0.000000	0.000000	0.000000	10.834632	535.404549	-83.042725	0.173233	0.000000	-0.905043	0.000000	5.403542	0.000000	-2.362397	509.426868	84.542090	0.202650	0.000000	-1.570319	-0.000000	-6.395511	-0.000000
0.656000	0.000000	0.000000	0.000000	0.000000	0.000000	0.000000	0.000000	0.000000	0.000000	0.000000	0.000000	0.000000	0.000000	0.000000	0.000000	0.000000	0.000000	0.000000	0.000000	0.000000	0.000000	0.000000	0.000000	0.000000	0.000000	0.000000	0.000000	10.850933	535.481591	-83.045367	0.173240	0.000000	-0.905036	-0.000000	5.407562	0.000000	-2.350876	509.452455	84.463849	0.202677	0.000000	-1.570327	-0.000000	-6.399233	-0.000000
0.656500	0.000000	0.000000	0.000000	0.000000	0.000000	0.000000	0.000000	0.000000	0.000000	0.000000	0.000000	0.000000	0.000000	0.000000	0.000000	0.000000	0.000000	0.000000	0.000000	0.000000	0.000000	0.000000	0.000000	0.000000	0.000000	0.000000	0.000000	10.869122	535.548308	-83.045364	0.173247	0.000000	-0.905030	-0.000000	5.411507	0.000000	-2.336293	509.478764	84.384550	0.202703	0.000000	-1.570334	-0.000000	-6.402853	-0.000000
0.657000	0.000000	0.000000	0.000000	0.000000	0.000000	0.000000	0.000000	0.000000	0.000000	0.000000	0.000000	0.000000	0.000000	0.000000	0.000000	0.000000	0.000000	0.000000	0.000000	0.000000	0.000000	0.000000	0.000000	0.000000	0.000000	0.000000	0.000000	10.889266	535.604637	-83.042544	0.173254	0.000000	-0.905022	-0.000000	5.415375	0.000000	-2.318635	509.505615	84.304136	0.202730	0.000000	-1.570340	-0.000000	-6.406372	-0.000000
0.657500	0.000000	0.000000	0.000000	0.000000	0.000000	0.000000	0.000000	0.000000	0.000000	0.000000	0.000000	0.000000	0.000000	0.000000	0.000000	0.000000	0.000000	0.000000	0.000000	0.000000	0.000000	0.000000	0.000000	0.000000	0.000000	0.000000	0.000000	10.911435	535.650544	-83.036744	0.173261	0.000000	-0.905015	-0.000000	5.419167	0.000000	-2.297878	509.532805	84.222547	0.202756	0.000000	-1.570347	-0.000000	-6.409788	-0.000000
0.658000	0.000000	0.000000	0.000000	0.000000	0.000000	0.000000	0.000000	0.000000	0.000000	0.000000	0.000000	0.000000	0.000000	0.000000	0.000000	0.000000	0.000000	0.000000	0.000000	0.000000	0.000000	0.000000	0.000000	0.000000	0.000000	0.000000	0.000000	10.935693	535.686021	-83.027807	0.173269	0.000000	-0.905007	-0.000000	5.422885	0.000000	-2.274002	509.560119	84.139720	0.202781	0.000000	-1.570353	-0.000000	-6.413105	-0.000000
0.658500	0.000000	0.000000	0.000000	0.000000	0.000000	0.000000	0.000000	0.000000	0.000000	0.000000	0.000000	0.000000	0.000000	0.000000	0.000000	0.000000	0.000000	0.000000	0.000000	0.000000	0.000000	0.000000	0.000000	0.000000	0.000000	0.000000	0.000000	10.962096	535.711085	-83.015579	0.173276	0.000000	-0.904999	-0.000000	5.426533	0.000000	-2.246989	509.587338	84.055595	0.202807	0.000000	-1.570359	-0.000000	-6.416323	-0.000000
0.659000	0.000000	0.000000	0.000000	0.000000	0.000000	0.000000	0.000000	0.000000	0.000000	0.000000	0.000000	0.000000	0.000000	0.000000	0.000000	0.000000	0.000000	0.000000	0.000000	0.000000	0.000000	0.000000	0.000000	0.000000	0.000000	0.000000	0.000000	10.990696	535.725771	-82.999912	0.173284	0.000000	-0.904990	-0.000000	5.430115	0.000000	-2.216827	509.614250	83.970115	0.202831	0.000000	-1.570365	-0.000000	-6.419443	-0.000000
0.659500	0.000000	0.000000	0.000000	0.000000	0.000000	0.000000	0.000000	0.000000	0.000000	0.000000	0.000000	0.000000	0.000000	0.000000	0.000000	0.000000	0.000000	0.000000	0.000000	0.000000	0.000000	0.000000	0.000000	0.000000	0.000000	0.000000	0.000000	11.021534	535.730139	-82.980667	0.173292	0.000000	-0.904981	-0.000000	5.433635	0.000000	-2.183511	509.640644	83.883223	0.202856	0.000000	-1.570371	-0.000000	-6.422464	-0.000000
0.660000	0.000000	0.000000	0.000000	0.000000	0.000000	0.000000	0.000000	0.000000	0.000000	0.000000	0.000000	0.000000	0.000000	0.000000	0.000000	0.000000	0.000000	0.000000	0.000000	0.000000	0.000000	0.000000	0.000000	0.000000	0.000000	0.000000	0.000000	11.054651	535.724276	-82.957710	0.173301	0.000000	-0.904972	-0.000000	5.437097	0.000000	-2.147041	509.666300	83.794865	0.202880	0.000000	-1.570377	-0.000000	-6.425387	-0.000000
0.660500	0.000000	0.000000	0.000000	0.000000	0.000000	0.000000	0.000000	0.000000	0.000000	0.000000	0.000000	0.000000	0.000000	0.000000	0.000000	0.000000	0.000000	0.000000	0.000000	0.000000	0.000000	0.000000	0.000000	0.000000	0.000000	0.000000	0.000000	11.090080	535.708289	-82.930916	0.173309	0.000000	-0.904963	-0.000000	5.440501	0.000000	-2.107421	509.690996	83.704987	0.202904	0.000000	-1.570382	-0.000000	-6.428210	-0.000000
0.661000	0.000000	0.000000	0.000000	0.000000	0.000000	0.000000	0.000000	0.000000	0.000000	0.000000	0.000000	0.000000	0.000000	0.000000	0.000000	0.000000	0.000000	0.000000	0.000000	0.000000	0.000000	0.000000	0.000000	0.000000	0.000000	0.000000	0.000000	11.127854	535.682305	-82.900170	0.173318	0.000000	-0.904954	-0.000000	5.443850	0.000000	-2.064657	509.714517	83.613540	0.202927	0.000000	-1.570387	-0.000000	-6.430933	-0.000000
0.661500	0.000000	0.000000	0.000000	0.000000	0.000000	0.000000	0.000000	0.000000	0.000000	0.000000	0.000000	0.000000	0.000000	0.000000	0.000000	0.000000	0.000000	0.000000	0.000000	0.000000	0.000000	0.000000	0.000000	0.000000	0.000000	0.000000	0.000000	11.167996	535.646462	-82.865370	0.173327	0.000000	-0.904944	-0.000000	5.447146	0.000000	-2.018758	509.736660	83.520477	0.202950	0.000000	-1.570392	-0.000000	-6.433550	-0.000000
0.662000	0.000000	0.000000	0.000000	0.000000	0.000000	0.000000	0.000000	0.000000	0.000000	0.000000	0.000000	0.000000	0.000000	0.000000	0.000000	0.000000	0.000000	0.000000	0.000000	0.000000	0.000000	0.000000	0.000000	0.000000	0.000000	0.000000	0.000000	11.210527	535.600911	-82.826433	0.173337	0.000000	-0.904934	-0.000000	5.450390	0.000000	-1.969731	509.757230	83.425756	0.202973	0.000000	-1.570397	-0.000000	-6.436056	-0.000000
0.662500	0.000000	0.000000	0.000000	0.000000	0.000000	0.000000	0.000000	0.000000	0.000000	0.000000	0.000000	0.000000	0.000000	0.000000	0.000000	0.000000	0.000000	0.000000	0.000000	0.000000	0.000000	0.000000	0.000000	0.000000	0.000000	0.000000	0.000000	11.255461	535.545809	-82.783294	0.173346	0.000000	-0.904925	-0.000000	5.453586	0.000000	-1.917588	509.776030	83.329347	0.202996	0.000000	-1.570402	-0.000000	-6.438448	-0.000000
0.663000	0.000000	0.000000	0.000000	0.000000	0.000000	0.000000	0.000000	0.000000	0.000000	0.000000	0.000000	0.000000	0.000000	0.000000	0.000000	0.000000	0.000000	0.000000	0.000000	0.000000	0.000000	0.000000	0.000000	0.000000	0.000000	0.000000	0.000000	11.302802	535.481316	-82.735909	0.173356	0.000000	-0.904915	-0.000000	5.456738	0.000000	-1.862343	509.792860	83.231231	0.203018	0.000000	-1.570407	-0.000000	-6.440720	-0.000000
0.663500	0.000000	0.000000	0.000000	0.000000	0.000000	0.000000	0.000000	0.000000	0.000000	0.000000	0.000000	0.000000	0.000000	0.000000	0.000000	0.000000	0.000000	0.000000	0.000000	0.000000	0.000000	0.000000	0.000000	0.000000	0.000000	0.000000	0.000000	11.352548	535.407588	-82.684255	0.173366	0.000000	-0.904905	-0.000000	5.459850	0.000000	-1.804016	509.807515	83.131408	0.203040	0.000000	-1.570412	-0.000000	-6.442871	-0.000000
